Coordinates
version=1
nRows=22
nColumns=18
inDegrees=yes

Units are S.I. units (second, meters, Newtons, ...)
If the header above contains a line with 'inDegrees', this indicates whether rotational values are in degrees (yes) or radians (no).

endheader
time	ground_thorax_rot_x	ground_thorax_rot_y	ground_thorax_rot_z	ground_thorax_tx	ground_thorax_ty	ground_thorax_tz	clav_prot	clav_elev	scapula_abduction	scapula_elevation	scapula_upward_rot	scapula_winging	plane_elv	shoulder_elv	axial_rot	elbow_flexion	pro_sup
      0.00000000	      1.55234460	     -3.11746175	    -10.01411770	      0.00000000	      0.00000000	      0.00000000	    -23.16488718	     -4.43557462	    -12.73826078	     -4.50038745	     14.26921430	      5.13960418	    -40.15809905	      9.74447593	     62.04620066	      0.00000000	     34.32000000
      0.01000000	      1.55919868	     -3.20379986	     -9.96769064	      0.00000000	      0.00000000	      0.00000000	    -23.05906221	     -4.43577199	    -12.58502682	     -4.48117052	     14.21894697	      5.14892418	    -40.14621521	      9.80079411	     62.10847570	      0.00000000	     34.32000000
      0.02000000	      1.46899798	     -3.17983068	    -10.06905171	      0.00000000	      0.00000000	      0.00000000	    -23.04203956	     -4.68248502	    -12.71894665	     -4.57032148	     13.83687060	      5.32689423	    -36.77459366	     10.74161132	     51.19198751	      0.00000000	     34.32000000
      0.03000000	      1.53400016	     -3.14350668	     -9.97702135	      0.00000000	      0.00000000	      0.00000000	    -23.09508691	     -4.46589186	    -12.67730131	     -4.48993813	     14.15511109	      5.17581096	    -39.85740738	      9.85650500	     61.47467386	      0.00000000	     34.32000000
      0.04000000	      1.56490118	     -3.18909617	     -9.94048164	      0.00000000	      0.00000000	      0.00000000	    -23.07076894	     -4.41971046	    -12.62849859	     -4.46123127	     14.18654411	      5.15208739	    -39.80722525	      9.87745335	     61.59511573	      0.00000000	     34.32000000
      0.05000000	      1.47964186	     -3.19411958	     -9.98907281	      0.00000000	      0.00000000	      0.00000000	    -23.03560981	     -4.55436831	    -12.59403003	     -4.53598652	     14.08485406	      5.22160387	    -38.84928407	     10.27053653	     56.07820933	      0.00000000	     34.32000000
      0.06000000	      1.64324538	     -3.28563634	    -10.02148775	      0.00000000	      0.00000000	      0.00000000	    -22.96175185	     -4.50019990	    -12.60694762	     -4.43424978	     13.86935818	      5.25506549	    -36.31434498	     10.64762085	     53.16359821	      0.00000000	     34.32000000
      0.07000000	      1.57499300	     -3.21963995	     -9.95258431	      0.00000000	      0.00000000	      0.00000000	    -22.96416602	     -4.52265259	    -12.63130171	     -4.44017382	     13.82533003	      5.27354813	    -36.37193005	     10.86251961	     50.48335771	      0.00000000	     34.32000000
      0.08000000	      1.21941192	     -2.84526204	    -10.09933895	      0.00000000	      0.00000000	      0.00000000	    -23.31268096	     -4.95141621	    -13.41137278	     -4.66349063	     13.33772134	      5.54973414	    -35.82801731	     10.75472429	     50.76329121	      0.00000000	     34.32000000
      0.09000000	      1.50186091	     -3.01479053	     -9.96176343	      0.00000000	      0.00000000	      0.00000000	    -23.26859021	     -4.48781552	    -13.02698447	     -4.49305168	     14.06103017	      5.21078070	    -39.69770485	      9.70305545	     62.03105074	      0.00000000	     34.32000000
      0.10000000	      2.28402739	     -3.74927839	     -9.70663054	      0.00000000	      0.00000000	      0.00000000	    -22.65581500	     -3.49566272	    -11.66656969	     -3.93864254	     14.99677483	      4.63733932	    -40.62627609	      9.49825808	     64.91502448	      0.00000000	     34.32000000
      0.11000000	      1.58489417	     -3.21660933	    -10.01883965	      0.00000000	      0.00000000	      0.00000000	    -23.06581771	     -4.50098875	    -12.78965081	     -4.43956563	     13.86344412	      5.25889832	    -36.80415601	     10.47009232	     54.59546170	      0.00000000	     34.32000000
      0.12000000	      1.60341121	     -3.16312314	    -10.03923521	      0.00000000	      0.00000000	      0.00000000	    -23.06085438	     -4.50618200	    -12.78267528	     -4.44217361	     13.85905280	      5.26245346	    -36.82766691	     10.51352751	     54.62015509	      0.00000000	     34.32000000
      0.13000000	      1.63780651	     -3.14105858	     -9.96245069	      0.00000000	      0.00000000	      0.00000000	    -23.08644642	     -4.39792521	    -12.63840493	     -4.45548963	     14.22509014	      5.13543885	    -39.94391959	      9.92757714	     61.65283644	      0.00000000	     34.32000000
      0.14000000	      1.56133162	     -3.21498065	    -10.07767045	      0.00000000	      0.00000000	      0.00000000	    -23.08454964	     -4.57768523	    -12.57279941	     -4.60019150	     14.25350761	      5.18862458	    -40.11377490	      9.87031596	     61.31076428	      0.00000000	     34.32000000
      0.15000000	      1.57124188	     -3.26343496	    -10.05864796	      0.00000000	      0.00000000	      0.00000000	    -23.08571115	     -4.57245584	    -12.58220475	     -4.59368156	     14.24339976	      5.18968649	    -40.11469671	      9.89374111	     61.31202850	      0.00000000	     34.32000000
      0.16000000	      1.55438369	     -3.41510619	    -10.02269773	      0.00000000	      0.00000000	      0.00000000	    -22.90368786	     -4.64110340	    -12.44472854	     -4.55057818	     13.91515360	      5.28978740	    -37.38298244	     10.65465441	     53.63310477	      0.00000000	     34.32000000
      0.17000000	      1.44657317	     -3.02671536	     -9.98947856	      0.00000000	      0.00000000	      0.00000000	    -23.31781469	     -4.64875821	    -13.07143964	     -4.61926497	     14.06099152	      5.26628914	    -40.02557545	      9.97869762	     58.82786350	      0.00000000	     34.32000000
      0.18000000	      1.49638938	     -3.20839925	    -10.04369975	      0.00000000	      0.00000000	      0.00000000	    -23.07688202	     -4.67931868	    -12.80505838	     -4.55899504	     13.79422853	      5.33747610	    -37.09179990	     10.62654306	     53.41430771	      0.00000000	     34.32000000
      0.19000000	      1.23754514	     -2.90121240	     -9.96323801	      0.00000000	      0.00000000	      0.00000000	    -23.22910887	     -4.88638601	    -13.16092197	     -4.66315168	     13.54776759	      5.47362454	    -38.04357740	     10.64130599	     54.13841346	      0.00000000	     34.32000000
      0.20000000	      1.23257061	     -2.86638372	     -9.99489181	      0.00000000	      0.00000000	      0.00000000	    -23.22482880	     -4.85666377	    -13.15183430	     -4.64400135	     13.56297800	      5.45932841	    -38.02230263	     10.61118224	     54.16106093	      0.00000000	     34.32000000
      0.21000000	      1.43660987	     -3.16405043	     -9.95016386	      0.00000000	      0.00000000	      0.00000000	    -22.93172641	     -4.62700840	    -12.66587560	     -4.46650561	     13.62625875	      5.35709483	    -36.80667411	     10.88898968	     51.77181140	      0.00000000	     34.32000000
